<svg width="19.5" height="24.05" viewBox="0 0 26 24.05" xmlns="http://www.w3.org/2000/svg">
  <g id="svgGroup" fill-rule="evenodd" font-size="9pt" fill="#ffffff80">
    <path d="M 19.4 2.35 L 17 6.7 Q 16.804 6.454 16.22 5.967 A 18.945 18.945 0 0 0 16.2 5.95 A 5.01 5.01 0 0 0 15.615 5.534 Q 15.317 5.351 14.961 5.179 A 9.559 9.559 0 0 0 14.625 5.025 A 4.768 4.768 0 0 0 13.618 4.72 Q 12.994 4.6 12.25 4.6 A 8.649 8.649 0 0 0 10.351 4.795 Q 9.084 5.081 8.165 5.783 A 4.965 4.965 0 0 0 7.325 6.6 A 7.07 7.07 0 0 0 5.91 9.635 A 10.13 10.13 0 0 0 5.7 11.75 A 12.472 12.472 0 0 0 5.895 14.025 Q 6.135 15.32 6.673 16.344 A 6.462 6.462 0 0 0 7.425 17.475 A 5.63 5.63 0 0 0 11.114 19.474 A 8.194 8.194 0 0 0 12.25 19.55 A 10.194 10.194 0 0 0 14.613 19.283 A 9.187 9.187 0 0 0 15.35 19.075 Q 16.763 18.612 17.511 18.078 A 3.725 3.725 0 0 0 17.55 18.05 L 19.5 21.85 Q 18.6 22.55 16.65 23.3 Q 14.822 24.003 12.379 24.047 A 18.27 18.27 0 0 1 12.05 24.05 A 13.361 13.361 0 0 1 8.015 23.455 A 12.015 12.015 0 0 1 5.975 22.6 Q 3.25 21.15 1.625 18.4 A 11.442 11.442 0 0 1 0.238 14.587 A 15.602 15.602 0 0 1 0 11.8 Q 0 8.2 1.475 5.55 Q 2.95 2.9 5.625 1.45 A 11.922 11.922 0 0 1 9.693 0.142 A 15.214 15.214 0 0 1 11.8 0 A 18.481 18.481 0 0 1 13.752 0.097 Q 15.374 0.27 16.575 0.75 A 15.212 15.212 0 0 1 17.706 1.253 Q 18.762 1.779 19.4 2.35 Z" vector-effect="non-scaling-stroke"/>
  </g>
</svg>